<svg width="90" height="30" viewBox="0 0 90 30" fill="none" xmlns="http://www.w3.org/2000/svg">
<path d="M0.36816 25.9999V3.2801H15.632V7.15206H4.78411V13.008H13.808V16.592H4.78411V25.9999H0.36816Z" fill="#265E55"/>
<path d="M17.0107 19.7279V9.23204H21.2987V18.7999C21.2987 20.0799 21.5333 21.0506 22.0027 21.7119C22.472 22.3519 23.1653 22.6719 24.0827 22.6719C24.6373 22.6719 25.1813 22.5652 25.7146 22.3519C26.2693 22.1172 26.7706 21.7759 27.2186 21.3279C27.6879 20.8799 28.0826 20.3146 28.4026 19.6319V9.23204H32.6906V21.1999C32.6906 21.6479 32.7652 21.9679 32.9146 22.1599C33.0852 22.3519 33.3519 22.4692 33.7146 22.5119V25.9999C33.2879 26.0639 32.9252 26.1065 32.6266 26.1279C32.3492 26.1705 32.0932 26.1919 31.8586 26.1919C31.0906 26.1919 30.4613 26.0212 29.9706 25.6799C29.5013 25.3172 29.2239 24.8265 29.1386 24.2079L29.0426 22.8639C28.2959 23.9945 27.336 24.8585 26.1626 25.4559C24.9893 26.0319 23.6987 26.3199 22.2907 26.3199C20.5627 26.3199 19.2507 25.7652 18.3547 24.6559C17.4587 23.5252 17.0107 21.8826 17.0107 19.7279Z" fill="#265E55"/>
<path d="M46.4357 12.944C45.1343 12.944 43.9717 13.2 42.9477 13.712C41.9237 14.2026 41.1877 14.9173 40.7397 15.856V25.9999H36.4518V9.23204H40.3877V12.816C40.9851 11.664 41.7424 10.7574 42.6597 10.096C43.577 9.4347 44.5477 9.07204 45.5717 9.00804C45.8063 9.00804 45.9877 9.00804 46.1157 9.00804C46.2437 9.00804 46.3503 9.01871 46.4357 9.04004V12.944Z" fill="#265E55"/>
<path d="M63.9105 25.9999H59.6225V16.592C59.6225 15.248 59.3879 14.2666 58.9185 13.648C58.4492 13.0293 57.7985 12.72 56.9665 12.72C56.3906 12.72 55.8039 12.8693 55.2066 13.168C54.6306 13.4667 54.1079 13.8827 53.6386 14.416C53.1693 14.928 52.8279 15.5253 52.6146 16.208V25.9999H48.3266V9.23204H52.1986V12.336C52.6253 11.6107 53.1693 11.0027 53.8306 10.512C54.4919 10 55.2492 9.61603 56.1026 9.36003C56.9772 9.0827 57.8945 8.94404 58.8545 8.94404C59.8998 8.94404 60.7532 9.13604 61.4145 9.52003C62.0972 9.8827 62.6092 10.384 62.9505 11.024C63.3131 11.6427 63.5585 12.3467 63.6865 13.136C63.8358 13.9253 63.9105 14.7253 63.9105 15.536V25.9999Z" fill="#265E55"/>
<path d="M67.1389 25.9999V9.23204H71.4269V25.9999H67.1389ZM67.1389 6.89606V2.64011H71.4269V6.89606H67.1389Z" fill="#265E55"/>
<path d="M84.843 25.1359C84.4803 25.2852 84.043 25.4559 83.531 25.6479C83.019 25.8399 82.4644 25.9892 81.867 26.0959C81.291 26.2239 80.7044 26.2879 80.107 26.2879C79.3177 26.2879 78.5924 26.1492 77.9311 25.8719C77.2697 25.5945 76.7364 25.1572 76.3311 24.5599C75.9471 23.9412 75.7551 23.1412 75.7551 22.1599V12.528H73.5471V9.23204H75.7551V3.7921H80.043V9.23204H83.563V12.528H80.043V20.7199C80.0644 21.2959 80.2244 21.7119 80.523 21.9679C80.8217 22.2239 81.195 22.3519 81.643 22.3519C82.091 22.3519 82.5284 22.2772 82.955 22.1279C83.3817 21.9786 83.723 21.8506 83.979 21.7439L84.843 25.1359Z" fill="#265E55"/>
<path d="M86.4802 25.9999V21.3919H90.0002V25.9999H86.4802Z" fill="#265E55"/>
</svg>
