<svg width="60" height="24" viewBox="0 0 60 24" fill="none" xmlns="http://www.w3.org/2000/svg">
<g clip-path="url(#clip0_637_2740)">
<path d="M28.4489 11.6156V18.5905H26.2384V1.37308H32.1011C33.5153 1.34562 34.8746 1.88109 35.9043 2.86964C36.9341 3.78955 37.5107 5.12136 37.4833 6.49436C37.5107 7.88108 36.9341 9.21289 35.9043 10.1465C34.8746 11.1214 33.6114 11.6156 32.1148 11.6156H28.4489ZM28.4489 3.48749V9.50122H32.156C32.9798 9.52868 33.7762 9.19916 34.3391 8.60877C35.5061 7.48292 35.5199 5.62937 34.394 4.46232L34.3391 4.4074C33.7762 3.80328 32.9798 3.47376 32.156 3.50122L28.4489 3.48749ZM42.5771 6.42571C44.2109 6.42571 45.5016 6.86507 46.4489 7.73006C47.3963 8.60877 47.8631 9.80328 47.8631 11.3273V18.5767H45.7487V16.9429H45.6526C44.7327 18.2884 43.5244 18.9612 42.0004 18.9612C40.7098 18.9612 39.6114 18.5767 38.7464 17.8079C37.8952 17.0939 37.4146 16.0367 37.4421 14.9246C37.4421 13.7026 37.9089 12.7415 38.8288 12.0138C39.7487 11.2861 40.9844 10.9291 42.5222 10.9291C43.8402 10.9291 44.9112 11.1763 45.7624 11.6431V11.1351C45.7624 10.3799 45.4329 9.66598 44.8563 9.18543C44.2659 8.66369 43.5107 8.37536 42.7281 8.37536C41.4924 8.37536 40.5176 8.8971 39.7899 9.94058L37.8402 8.71861C38.8974 7.19459 40.4764 6.42571 42.5771 6.42571ZM39.7212 14.9795C39.7212 15.5561 39.9958 16.0916 40.4489 16.4211C40.9432 16.8056 41.5473 17.0115 42.1652 16.9978C43.0988 16.9978 43.9913 16.6271 44.6503 15.968C45.378 15.2815 45.7487 14.4715 45.7487 13.5378C45.0622 12.9886 44.1011 12.714 42.8654 12.714C41.973 12.714 41.2178 12.9337 40.6137 13.3593C40.0233 13.7987 39.7212 14.3342 39.7212 14.9795ZM60.0004 6.81015L52.6137 23.7804H50.3345L53.0805 17.849L48.2201 6.82388H50.6228L54.124 15.2815H54.1789L57.5977 6.82388L60.0004 6.81015Z" fill="#5F6368"/>
<path d="M19.51 10.1054C19.51 9.43264 19.4551 8.75987 19.3452 8.10083H10.0226V11.904H15.3635C15.1439 13.126 14.4299 14.2244 13.3864 14.9109V17.3823H16.5718C18.4391 15.666 19.51 13.126 19.51 10.1054Z" fill="#4285F4"/>
<path d="M10.023 19.7714C12.6866 19.7714 14.9383 18.8926 16.5722 17.3823L13.3868 14.911C12.4944 15.5151 11.3548 15.8583 10.023 15.8583C7.44172 15.8583 5.25865 14.1146 4.47604 11.7805H1.19458V14.3343C2.86964 17.6569 6.2884 19.7714 10.023 19.7714Z" fill="#34A853"/>
<path d="M4.47601 11.7804C4.06411 10.5585 4.06411 9.22667 4.47601 7.99097V5.45093H1.19454C0.497286 6.82526 0.133911 8.34463 0.133911 9.88571C0.133911 11.4268 0.497286 12.9462 1.19454 14.3205L4.47601 11.7804Z" fill="#FBBC04"/>
<path d="M10.023 3.91315C11.4371 3.88569 12.7964 4.42116 13.8124 5.39599L16.6271 2.58135C14.8422 0.892558 12.4806 -0.0273507 10.023 0.000109219C6.2884 0.000109219 2.86964 2.11453 1.19458 5.45091L4.47604 8.00469C5.25865 5.65686 7.44172 3.91315 10.023 3.91315Z" fill="#EA4335"/>
</g>
<defs>
<clipPath id="clip0_637_2740">
<rect width="60" height="23.8902" fill="white"/>
</clipPath>
</defs>
</svg>
