<svg width="30" height="30" viewBox="0 0 30 30" fill="none" xmlns="http://www.w3.org/2000/svg">
<path d="M26.6049 10.3447L19.1664 9.26369L15.8412 2.52247C15.7504 2.3379 15.6009 2.18849 15.4164 2.09767C14.9535 1.86915 14.391 2.05958 14.1595 2.52247L10.8343 9.26369L3.39585 10.3447C3.19077 10.374 3.00327 10.4707 2.85972 10.6172C2.68617 10.7956 2.59054 11.0356 2.59383 11.2844C2.59713 11.5333 2.69908 11.7706 2.8773 11.9444L8.25914 17.1914L6.98765 24.6006C6.95784 24.773 6.97691 24.9502 7.04271 25.1123C7.10851 25.2743 7.2184 25.4147 7.35992 25.5175C7.50145 25.6203 7.66894 25.6814 7.84341 25.6938C8.01788 25.7063 8.19235 25.6696 8.34703 25.5879L15.0004 22.0899L21.6537 25.5879C21.8353 25.6846 22.0463 25.7168 22.2484 25.6817C22.7582 25.5938 23.1009 25.1104 23.0131 24.6006L21.7416 17.1914L27.1234 11.9444C27.2699 11.8008 27.3666 11.6133 27.3959 11.4082C27.475 10.8955 27.1175 10.4209 26.6049 10.3447Z" fill="#FECE68"/>
</svg>
