<svg width="20" height="18" viewBox="0 0 20 18" fill="none" xmlns="http://www.w3.org/2000/svg">
<path d="M9.97651 1.55853C8.88654 0.556293 7.45986 4.65693e-05 5.97915 0C5.19543 0.000815979 4.4196 0.156613 3.69632 0.458424C2.97303 0.760235 2.31658 1.2021 1.76472 1.7586C-0.589075 4.1224 -0.588074 7.81965 1.76672 10.1734L9.10121 17.5079C9.27127 17.807 9.59938 18.0001 9.97651 18.0001C10.1314 17.9986 10.2837 17.9608 10.4213 17.8897C10.5589 17.8187 10.6779 17.7164 10.7688 17.591L18.1863 10.1734C20.5411 7.81865 20.5411 4.1224 18.1843 1.75459C17.6327 1.19912 16.9768 0.758154 16.2542 0.457038C15.5316 0.155923 14.7567 0.00059981 13.9739 0C12.4932 0.000242041 11.0666 0.556461 9.97651 1.55853ZM16.7698 3.16907C18.3333 4.74061 18.3343 7.19544 16.7718 8.75897L9.97651 15.5543L3.1812 8.75897C1.61867 7.19544 1.61967 4.74061 3.1792 3.17308C3.93946 2.41682 4.9338 2.00068 5.97915 2.00068C7.02451 2.00068 8.01484 2.41682 8.7691 3.17108L9.26927 3.67124C9.36209 3.76422 9.47233 3.83798 9.59369 3.88831C9.71504 3.93864 9.84513 3.96455 9.97651 3.96455C10.1079 3.96455 10.238 3.93864 10.3593 3.88831C10.4807 3.83798 10.5909 3.76422 10.6837 3.67124L11.1839 3.17108C12.6964 1.66156 15.2593 1.66556 16.7698 3.16907Z" fill="#000201"/>
</svg>
