<svg width="20" height="21" viewBox="0 0 20 21" fill="none" xmlns="http://www.w3.org/2000/svg">
<path d="M10.0002 8.34167C9.08349 8.34167 8.3335 9.09242 8.3335 10.01C8.3335 10.9276 9.08349 11.6783 10.0002 11.6783C10.9168 11.6783 11.6668 10.9276 11.6668 10.01C11.6668 9.09242 10.9168 8.34167 10.0002 8.34167ZM15.0002 8.34167C14.0835 8.34167 13.3335 9.09242 13.3335 10.01C13.3335 10.9276 14.0835 11.6783 15.0002 11.6783C15.9168 11.6783 16.6668 10.9276 16.6668 10.01C16.6668 9.09242 15.9168 8.34167 15.0002 8.34167ZM5.00016 8.34167C4.0835 8.34167 3.3335 9.09242 3.3335 10.01C3.3335 10.9276 4.0835 11.6783 5.00016 11.6783C5.91683 11.6783 6.66683 10.9276 6.66683 10.01C6.66683 9.09242 5.91683 8.34167 5.00016 8.34167Z" fill="#000201"/>
</svg>
