<svg width="140" height="20" viewBox="0 0 140 20" fill="none" xmlns="http://www.w3.org/2000/svg">
<path d="M18.289 7.64918C18.2366 7.4949 18.1402 7.35934 18.0117 7.25923C17.8831 7.15912 17.7281 7.09884 17.5657 7.08585L12.8149 6.70835L10.759 2.15751C10.6936 2.01094 10.5871 1.88645 10.4524 1.79906C10.3177 1.71167 10.1607 1.66513 10.0001 1.66504C9.8396 1.66495 9.68247 1.71132 9.54771 1.79856C9.41296 1.8858 9.30633 2.01018 9.24069 2.15668L7.18486 6.70835L2.43403 7.08585C2.27441 7.09849 2.12181 7.15685 1.99449 7.25395C1.86717 7.35105 1.77052 7.48278 1.7161 7.63337C1.66169 7.78396 1.65181 7.94704 1.68765 8.1031C1.72349 8.25916 1.80353 8.40159 1.91819 8.51335L5.42903 11.9358L4.18736 17.3125C4.14966 17.4753 4.16174 17.6456 4.22204 17.8014C4.28234 17.9572 4.38808 18.0913 4.52553 18.1862C4.66298 18.2812 4.82579 18.3326 4.99285 18.3339C5.1599 18.3352 5.32348 18.2862 5.46236 18.1933L9.99986 15.1683L14.5374 18.1933C14.6793 18.2876 14.8467 18.3361 15.0171 18.3324C15.1874 18.3286 15.3525 18.2728 15.4902 18.1725C15.6279 18.0721 15.7315 17.9319 15.7872 17.7709C15.8428 17.6099 15.8478 17.4356 15.8015 17.2717L14.2774 11.9383L18.0574 8.53668C18.3049 8.31335 18.3957 7.96501 18.289 7.64918Z" fill="#FF9533"/>
<path d="M48.289 7.64918C48.2366 7.4949 48.1402 7.35934 48.0117 7.25923C47.8831 7.15912 47.7281 7.09884 47.5657 7.08585L42.8149 6.70835L40.759 2.15751C40.6936 2.01094 40.5871 1.88645 40.4524 1.79906C40.3177 1.71167 40.1607 1.66513 40.0001 1.66504C39.8396 1.66495 39.6825 1.71132 39.5477 1.79856C39.413 1.8858 39.3063 2.01018 39.2407 2.15668L37.1849 6.70835L32.434 7.08585C32.2744 7.09849 32.1218 7.15685 31.9945 7.25395C31.8672 7.35105 31.7705 7.48278 31.7161 7.63337C31.6617 7.78396 31.6518 7.94704 31.6876 8.1031C31.7235 8.25916 31.8035 8.40159 31.9182 8.51335L35.429 11.9358L34.1874 17.3125C34.1497 17.4753 34.1617 17.6456 34.222 17.8014C34.2823 17.9572 34.3881 18.0913 34.5255 18.1862C34.663 18.2812 34.8258 18.3326 34.9928 18.3339C35.1599 18.3352 35.3235 18.2862 35.4624 18.1933L39.9999 15.1683L44.5374 18.1933C44.6793 18.2876 44.8467 18.3361 45.0171 18.3324C45.1874 18.3286 45.3525 18.2728 45.4902 18.1725C45.6279 18.0721 45.7315 17.9319 45.7872 17.7709C45.8428 17.6099 45.8478 17.4356 45.8015 17.2717L44.2774 11.9383L48.0574 8.53668C48.3049 8.31335 48.3957 7.96501 48.289 7.64918Z" fill="#FF9533"/>
<path d="M78.289 7.64918C78.2366 7.4949 78.1402 7.35934 78.0117 7.25923C77.8831 7.15912 77.7281 7.09884 77.5657 7.08585L72.8149 6.70835L70.759 2.15751C70.6936 2.01094 70.5871 1.88645 70.4524 1.79906C70.3177 1.71167 70.1607 1.66513 70.0001 1.66504C69.8396 1.66495 69.6825 1.71132 69.5477 1.79856C69.413 1.8858 69.3063 2.01018 69.2407 2.15668L67.1849 6.70835L62.434 7.08585C62.2744 7.09849 62.1218 7.15685 61.9945 7.25395C61.8672 7.35105 61.7705 7.48278 61.7161 7.63337C61.6617 7.78396 61.6518 7.94704 61.6876 8.1031C61.7235 8.25916 61.8035 8.40159 61.9182 8.51335L65.429 11.9358L64.1874 17.3125C64.1497 17.4753 64.1617 17.6456 64.222 17.8014C64.2823 17.9572 64.3881 18.0913 64.5255 18.1862C64.663 18.2812 64.8258 18.3326 64.9928 18.3339C65.1599 18.3352 65.3235 18.2862 65.4624 18.1933L69.9999 15.1683L74.5374 18.1933C74.6793 18.2876 74.8467 18.3361 75.0171 18.3324C75.1874 18.3286 75.3525 18.2728 75.4902 18.1725C75.6279 18.0721 75.7315 17.9319 75.7872 17.7709C75.8428 17.6099 75.8478 17.4356 75.8015 17.2717L74.2774 11.9383L78.0574 8.53668C78.3049 8.31335 78.3957 7.96501 78.289 7.64918Z" fill="#FF9533"/>
<path d="M108.289 7.64918C108.237 7.4949 108.14 7.35934 108.012 7.25923C107.883 7.15912 107.728 7.09884 107.566 7.08585L102.815 6.70835L100.759 2.15751C100.694 2.01094 100.587 1.88645 100.452 1.79906C100.318 1.71167 100.161 1.66513 100 1.66504C99.8396 1.66495 99.6825 1.71132 99.5477 1.79856C99.413 1.8858 99.3063 2.01018 99.2407 2.15668L97.1849 6.70835L92.434 7.08585C92.2744 7.09849 92.1218 7.15685 91.9945 7.25395C91.8672 7.35105 91.7705 7.48278 91.7161 7.63337C91.6617 7.78396 91.6518 7.94704 91.6876 8.1031C91.7235 8.25916 91.8035 8.40159 91.9182 8.51335L95.429 11.9358L94.1874 17.3125C94.1497 17.4753 94.1617 17.6456 94.222 17.8014C94.2823 17.9572 94.3881 18.0913 94.5255 18.1862C94.663 18.2812 94.8258 18.3326 94.9928 18.3339C95.1599 18.3352 95.3235 18.2862 95.4624 18.1933L99.9999 15.1683L104.537 18.1933C104.679 18.2876 104.847 18.3361 105.017 18.3324C105.187 18.3286 105.353 18.2728 105.49 18.1725C105.628 18.0721 105.732 17.9319 105.787 17.7709C105.843 17.6099 105.848 17.4356 105.802 17.2717L104.277 11.9383L108.057 8.53668C108.305 8.31335 108.396 7.96501 108.289 7.64918Z" fill="#FF9533"/>
<path d="M138.289 7.64918C138.237 7.4949 138.14 7.35934 138.012 7.25923C137.883 7.15912 137.728 7.09884 137.566 7.08585L132.815 6.70835L130.759 2.15751C130.694 2.01094 130.587 1.88645 130.452 1.79906C130.318 1.71167 130.161 1.66513 130 1.66504C129.84 1.66495 129.682 1.71132 129.548 1.79856C129.413 1.8858 129.306 2.01018 129.241 2.15668L127.185 6.70835L122.434 7.08585C122.274 7.09849 122.122 7.15685 121.994 7.25395C121.867 7.35105 121.771 7.48278 121.716 7.63337C121.662 7.78396 121.652 7.94704 121.688 8.1031C121.723 8.25916 121.804 8.40159 121.918 8.51335L125.429 11.9358L124.187 17.3125C124.15 17.4753 124.162 17.6456 124.222 17.8014C124.282 17.9572 124.388 18.0913 124.526 18.1862C124.663 18.2812 124.826 18.3326 124.993 18.3339C125.16 18.3352 125.323 18.2862 125.462 18.1933L130 15.1683L134.537 18.1933C134.679 18.2876 134.847 18.3361 135.017 18.3324C135.187 18.3286 135.353 18.2728 135.49 18.1725C135.628 18.0721 135.732 17.9319 135.787 17.7709C135.843 17.6099 135.848 17.4356 135.802 17.2717L134.277 11.9383L138.057 8.53668C138.305 8.31335 138.396 7.96501 138.289 7.64918Z" fill="#FF9533"/>
</svg>
