<svg width="64" height="60" viewBox="0 0 64 60" fill="none" xmlns="http://www.w3.org/2000/svg">
<circle cx="31.875" cy="30" r="30" fill="#F8F8F8"/>
<path d="M19.5 30C19.5 32.9837 20.6853 35.8452 22.795 37.955C24.9048 40.0647 27.7663 41.25 30.75 41.25C33.7375 41.25 36.6 40.075 38.75 38L36.875 36.125C36.0878 36.958 35.1381 37.6208 34.0846 38.0723C33.0311 38.5238 31.8962 38.7544 30.75 38.75C22.95 38.75 19.05 29.325 24.5625 23.8125C30.075 18.3 39.5 22.2125 39.5 30H35.75L40.75 35H40.875L45.75 30H42C42 27.0163 40.8147 24.1548 38.705 22.045C36.5952 19.9353 33.7337 18.75 30.75 18.75C27.7663 18.75 24.9048 19.9353 22.795 22.045C20.6853 24.1548 19.5 27.0163 19.5 30Z" fill="#23292E"/>
</svg>
