<svg width="24" height="24" viewBox="0 0 24 24" fill="none" xmlns="http://www.w3.org/2000/svg">
<path d="M11.999 7.377C10.7726 7.377 9.59651 7.86417 8.72934 8.73134C7.86217 9.59851 7.375 10.7746 7.375 12.001C7.375 13.2274 7.86217 14.4035 8.72934 15.2707C9.59651 16.1378 10.7726 16.625 11.999 16.625C13.2254 16.625 14.4015 16.1378 15.2687 15.2707C16.1358 14.4035 16.623 13.2274 16.623 12.001C16.623 10.7746 16.1358 9.59851 15.2687 8.73134C14.4015 7.86417 13.2254 7.377 11.999 7.377ZM11.999 15.004C11.2023 15.004 10.4382 14.6875 9.87485 14.1241C9.31149 13.5608 8.995 12.7967 8.995 12C8.995 11.2033 9.31149 10.4392 9.87485 9.87585C10.4382 9.31249 11.2023 8.996 11.999 8.996C12.7957 8.996 13.5598 9.31249 14.1231 9.87585C14.6865 10.4392 15.003 11.2033 15.003 12C15.003 12.7967 14.6865 13.5608 14.1231 14.1241C13.5598 14.6875 12.7957 15.004 11.999 15.004Z" fill="#000201"/>
<path d="M16.806 8.285C17.4014 8.285 17.884 7.80236 17.884 7.207C17.884 6.61163 17.4014 6.129 16.806 6.129C16.2107 6.129 15.728 6.61163 15.728 7.207C15.728 7.80236 16.2107 8.285 16.806 8.285Z" fill="#000201"/>
<path d="M20.533 6.111C20.3015 5.51319 19.9477 4.97029 19.4943 4.51706C19.0409 4.06384 18.4979 3.71028 17.9 3.479C17.2003 3.21636 16.4611 3.07435 15.714 3.059C14.751 3.017 14.446 3.005 12.004 3.005C9.56195 3.005 9.24895 3.005 8.29395 3.059C7.54734 3.07356 6.80871 3.21561 6.10995 3.479C5.51189 3.71001 4.96872 4.06348 4.51529 4.51673C4.06186 4.96999 3.70818 5.51303 3.47695 6.111C3.21426 6.81062 3.07257 7.54984 3.05795 8.297C3.01495 9.259 3.00195 9.564 3.00195 12.007C3.00195 14.449 3.00195 14.76 3.05795 15.717C3.07295 16.465 3.21395 17.203 3.47695 17.904C3.70883 18.5018 4.06285 19.0446 4.51639 19.4978C4.96993 19.951 5.51302 20.3046 6.11095 20.536C6.80839 20.8092 7.54732 20.9614 8.29595 20.986C9.25895 21.028 9.56395 21.041 12.006 21.041C14.448 21.041 14.761 21.041 15.716 20.986C16.4631 20.9708 17.2022 20.8291 17.902 20.567C18.4997 20.3352 19.0426 19.9813 19.4959 19.528C19.9493 19.0746 20.3031 18.5318 20.535 17.934C20.798 17.234 20.939 16.496 20.954 15.748C20.997 14.786 21.01 14.481 21.01 12.038C21.01 9.59501 21.01 9.285 20.954 8.328C20.9423 7.57028 20.7999 6.82025 20.533 6.111ZM19.315 15.643C19.3085 16.2193 19.2033 16.7902 19.004 17.331C18.8538 17.7199 18.6239 18.073 18.329 18.3677C18.0342 18.6624 17.6809 18.8921 17.292 19.042C16.7572 19.2405 16.1923 19.3456 15.622 19.353C14.672 19.397 14.404 19.408 11.968 19.408C9.52995 19.408 9.28095 19.408 8.31295 19.353C7.74288 19.346 7.17828 19.2408 6.64395 19.042C6.25364 18.893 5.89895 18.6637 5.60284 18.369C5.30673 18.0742 5.07579 17.7206 4.92495 17.331C4.7284 16.7961 4.62326 16.2318 4.61395 15.662C4.57095 14.712 4.56095 14.444 4.56095 12.008C4.56095 9.571 4.56095 9.322 4.61395 8.353C4.62042 7.77703 4.72561 7.20642 4.92495 6.666C5.22995 5.877 5.85495 5.256 6.64395 4.954C7.17854 4.75614 7.74298 4.65097 8.31295 4.643C9.26395 4.6 9.53095 4.588 11.968 4.588C14.405 4.588 14.655 4.588 15.622 4.643C16.1924 4.64987 16.7573 4.75508 17.292 4.954C17.6809 5.10428 18.0341 5.33421 18.3289 5.62903C18.6238 5.92386 18.8537 6.27708 19.004 6.666C19.2005 7.20095 19.3056 7.76516 19.315 8.335C19.358 9.28601 19.369 9.553 19.369 11.99C19.369 14.426 19.369 14.688 19.326 15.644H19.315V15.643Z" fill="#000201"/>
</svg>
