<svg width="50" height="50" viewBox="0 0 50 50" fill="none" xmlns="http://www.w3.org/2000/svg">
<path d="M13.5414 20.8334C13.0768 20.8334 12.6309 20.9042 12.1872 20.9688C12.3309 20.4855 12.4789 19.9938 12.7164 19.5521C12.9539 18.9105 13.3247 18.3542 13.6934 17.7938C14.0018 17.1875 14.5455 16.7771 14.9455 16.2584C15.3643 15.7542 15.9351 15.4188 16.3872 15C16.8309 14.5625 17.4122 14.3438 17.8747 14.0355C18.358 13.7584 18.7789 13.4521 19.2289 13.3063L20.3518 12.8438L21.3393 12.4334L20.3289 8.39587L19.0851 8.69587C18.6872 8.79587 18.2018 8.91254 17.6497 9.05212C17.0851 9.15629 16.483 9.44171 15.8122 9.70212C15.1497 9.99796 14.383 10.198 13.6705 10.673C12.9539 11.1271 12.1268 11.5063 11.3976 12.1146C10.6914 12.7417 9.83927 13.2855 9.21011 14.0834C8.52261 14.8292 7.84344 15.6125 7.31636 16.5042C6.70594 17.3542 6.29136 18.2875 5.85386 19.2105C5.45803 20.1334 5.13928 21.0771 4.87886 21.9938C4.38511 23.8313 4.16428 25.5771 4.07886 27.0709C4.00803 28.5667 4.04969 29.8105 4.13719 30.7105C4.16844 31.1355 4.22678 31.548 4.26844 31.8334L4.32053 32.1834L4.37469 32.1709C4.74524 33.9018 5.59824 35.4924 6.83503 36.7587C8.07182 38.0251 9.64186 38.9154 11.3635 39.3268C13.0852 39.7381 14.8881 39.6536 16.5638 39.083C18.2394 38.5125 19.7193 37.4792 20.8322 36.1027C21.9451 34.7262 22.6456 33.0628 22.8526 31.3048C23.0597 29.5469 22.7648 27.7662 22.002 26.1688C21.2393 24.5715 20.04 23.2227 18.5427 22.2785C17.0455 21.3343 15.3115 20.8333 13.5414 20.8334ZM36.458 20.8334C35.9934 20.8334 35.5476 20.9042 35.1039 20.9688C35.2476 20.4855 35.3955 19.9938 35.633 19.5521C35.8705 18.9105 36.2414 18.3542 36.6101 17.7938C36.9184 17.1875 37.4622 16.7771 37.8622 16.2584C38.2809 15.7542 38.8518 15.4188 39.3039 15C39.7476 14.5625 40.3289 14.3438 40.7914 14.0355C41.2747 13.7584 41.6955 13.4521 42.1455 13.3063L43.2684 12.8438L44.2559 12.4334L43.2455 8.39587L42.0018 8.69587C41.6039 8.79587 41.1184 8.91254 40.5664 9.05212C40.0018 9.15629 39.3997 9.44171 38.7289 9.70212C38.0684 10 37.2997 10.198 36.5872 10.675C35.8705 11.1292 35.0434 11.5084 34.3143 12.1167C33.608 12.7438 32.7559 13.2875 32.1268 14.0834C31.4393 14.8292 30.7601 15.6125 30.233 16.5042C29.6226 17.3542 29.208 18.2875 28.7705 19.2105C28.3747 20.1334 28.0559 21.0771 27.7955 21.9938C27.3018 23.8313 27.0809 25.5771 26.9955 27.0709C26.9247 28.5667 26.9664 29.8105 27.0539 30.7105C27.0851 31.1355 27.1434 31.548 27.1851 31.8334L27.2372 32.1834L27.2914 32.1709C27.6619 33.9018 28.5149 35.4924 29.7517 36.7587C30.9885 38.0251 32.5585 38.9154 34.2802 39.3268C36.0018 39.7381 37.8048 39.6536 39.4804 39.083C41.1561 38.5125 42.6359 37.4792 43.7489 36.1027C44.8618 34.7262 45.5623 33.0628 45.7693 31.3048C45.9763 29.5469 45.6814 27.7662 44.9187 26.1688C44.156 24.5715 42.9566 23.2227 41.4594 22.2785C39.9621 21.3343 38.2281 20.8333 36.458 20.8334Z" fill="#23292E"/>
</svg>
