<svg width="80" height="20" viewBox="0 0 80 20" fill="none" xmlns="http://www.w3.org/2000/svg">
<g clip-path="url(#clip0_637_2731)">
<path fill-rule="evenodd" clip-rule="evenodd" d="M6.9803 4.56201H12.4469C15.382 4.56201 16.4869 6.04791 16.3162 8.2309C16.034 11.8349 13.8552 13.8288 10.9653 13.8288H9.50619C9.10967 13.8288 8.84297 14.0912 8.73572 14.8024L8.11625 18.937C8.07532 19.2051 7.93421 19.3603 7.72255 19.3815H4.28791C3.96476 19.3815 3.85046 19.1345 3.93513 18.5997L6.02922 5.34518C6.11106 4.8146 6.40175 4.56201 6.9803 4.56201Z" fill="#009EE3"/>
<path fill-rule="evenodd" clip-rule="evenodd" d="M30.7138 4.31665C32.5581 4.31665 34.2599 5.31713 34.0271 7.81056C33.7449 10.7739 32.1574 12.4136 29.6526 12.4206H27.464C27.1493 12.4206 26.9969 12.6775 26.9151 13.2038L26.4918 15.8948C26.4283 16.3012 26.2194 16.5016 25.9118 16.5016H23.8756C23.551 16.5016 23.4381 16.2941 23.5101 15.8299L25.1907 5.04478C25.274 4.51421 25.4729 4.31665 25.8356 4.31665H30.7096H30.7138ZM27.3977 10.0909H29.0557C30.0929 10.0514 30.7815 9.33314 30.8507 8.03774C30.893 7.23765 30.3525 6.66473 29.4932 6.66897L27.9325 6.67602L27.3977 10.0909ZM39.5629 15.6761C39.7491 15.5067 39.9382 15.4193 39.9114 15.6281L39.8451 16.1276C39.8112 16.3887 39.9142 16.527 40.1569 16.527H41.966C42.2708 16.527 42.4189 16.4042 42.4937 15.9329L43.6085 8.93662C43.6649 8.58525 43.5789 8.4131 43.3122 8.4131H41.3225C41.1433 8.4131 41.0558 8.51329 41.0092 8.78704L40.9359 9.21743C40.8978 9.4418 40.7948 9.48131 40.6988 9.25553C40.3615 8.45684 39.5008 8.09842 38.2999 8.12664C35.5101 8.1845 33.6291 10.3026 33.4274 13.0175C33.2721 15.1173 34.7764 16.7669 36.7604 16.7669C38.1997 16.7669 38.8432 16.3435 39.5685 15.6803L39.5629 15.6761ZM38.0473 14.5994C36.8465 14.5994 36.0097 13.6413 36.1832 12.4672C36.3568 11.2932 37.4801 10.335 38.6809 10.335C39.8818 10.335 40.7186 11.2932 40.545 12.4672C40.3714 13.6413 39.2496 14.5994 38.0473 14.5994ZM47.149 8.39052H45.3145C44.9364 8.39052 44.7825 8.67274 44.9025 9.01987L47.18 15.6888L44.9462 18.8624C44.7586 19.1276 44.9039 19.3689 45.1678 19.3689H47.2294C47.3496 19.3828 47.4712 19.3619 47.5798 19.3086C47.6883 19.2553 47.7793 19.1719 47.8418 19.0684L54.8466 9.02129C55.0625 8.71225 54.9609 8.3877 54.6067 8.3877H52.6551C52.3207 8.3877 52.1866 8.52035 51.9947 8.79833L49.0737 13.0317L47.7685 8.78846C47.6923 8.53163 47.5018 8.39052 47.1504 8.39052H47.149Z" fill="#113984"/>
<path fill-rule="evenodd" clip-rule="evenodd" d="M62.1343 4.31655C63.9786 4.31655 65.6804 5.31702 65.4475 7.81045C65.1653 10.7738 63.5778 12.4135 61.0731 12.4205H58.8859C58.5712 12.4205 58.4188 12.6774 58.337 13.2037L57.9136 15.8947C57.8501 16.3011 57.6413 16.5015 57.3337 16.5015H55.2974C54.9729 16.5015 54.86 16.294 54.932 15.8298L56.6154 5.04185C56.6987 4.51128 56.8976 4.31372 57.2603 4.31372H62.1343V4.31655ZM58.8181 10.0908H60.4762C61.5134 10.0513 62.202 9.33304 62.2711 8.03764C62.3135 7.23754 61.773 6.66463 60.9136 6.66886L59.353 6.67592L58.8181 10.0908ZM70.9833 15.676C71.1696 15.5066 71.3587 15.4192 71.3319 15.628L71.2655 16.1275C71.2317 16.3886 71.3347 16.5269 71.5774 16.5269H73.3864C73.6912 16.5269 73.8394 16.4041 73.9142 15.9328L75.029 8.93651C75.0854 8.58515 74.9993 8.41299 74.7326 8.41299H72.7458C72.5666 8.41299 72.4791 8.51318 72.4325 8.78694L72.3591 9.21732C72.321 9.44169 72.218 9.4812 72.1221 9.25543C71.7848 8.45674 70.9241 8.09832 69.7232 8.12654C66.9334 8.1844 65.0524 10.3025 64.8506 13.0174C64.6954 15.1172 66.1997 16.7668 68.1837 16.7668C69.623 16.7668 70.2665 16.3434 70.9918 15.6802L70.9833 15.676ZM69.4692 14.5993C68.2683 14.5993 67.4316 13.6412 67.6051 12.4671C67.7787 11.2931 68.9019 10.3349 70.1028 10.3349C71.3036 10.3349 72.1404 11.2931 71.9669 12.4671C71.7933 13.6412 70.6701 14.5993 69.4692 14.5993ZM77.8131 16.5382H75.7246C75.6883 16.5398 75.6521 16.5334 75.6185 16.5194C75.585 16.5054 75.5549 16.4841 75.5305 16.4572C75.5061 16.4302 75.488 16.3982 75.4774 16.3634C75.4668 16.3286 75.464 16.2919 75.4692 16.2559L77.3037 4.63405C77.3212 4.55473 77.365 4.48367 77.428 4.43243C77.4911 4.38119 77.5696 4.35278 77.6508 4.35182H79.7392C79.7756 4.3502 79.8118 4.35662 79.8454 4.37062C79.8789 4.38462 79.909 4.40586 79.9334 4.43282C79.9578 4.45978 79.9759 4.49179 79.9865 4.52658C79.9971 4.56136 79.9999 4.59806 79.9947 4.63405L78.1602 16.2559C78.1433 16.3358 78.0997 16.4075 78.0366 16.4593C77.9735 16.5111 77.8947 16.5399 77.8131 16.541V16.5382Z" fill="#009EE3"/>
<path fill-rule="evenodd" clip-rule="evenodd" d="M3.56165 0H9.03393C10.5749 0 12.4037 0.0493888 13.6257 1.12889C14.4427 1.84996 14.8717 2.9972 14.7729 4.23333C14.4371 8.41162 11.938 10.7526 8.58519 10.7526H5.88715C5.42713 10.7526 5.12374 11.0574 4.99392 11.8815L4.24039 16.6793C4.191 16.9897 4.05694 17.1732 3.81706 17.1958H0.440273C0.0663291 17.1958 -0.0663164 16.9136 0.0310502 16.2898L2.45816 0.911575C2.55552 0.293509 2.8956 0 3.56165 0Z" fill="#113984"/>
<path fill-rule="evenodd" clip-rule="evenodd" d="M5.07324 11.3948L6.02856 5.34537C6.11182 4.81479 6.40251 4.56079 6.98106 4.56079H12.4477C13.3522 4.56079 14.0846 4.7019 14.6575 4.96296C14.1086 8.68264 11.7026 10.7485 8.55304 10.7485H5.85923C5.49799 10.7499 5.2327 10.9305 5.07324 11.3948Z" fill="#172C70"/>
</g>
<defs>
<clipPath id="clip0_637_2731">
<rect width="80" height="19.3816" fill="white"/>
</clipPath>
</defs>
</svg>
