<svg width="24" height="24" viewBox="0 0 24 24" fill="none" xmlns="http://www.w3.org/2000/svg">
<path d="M22 7.99988C22.0097 7.93022 22.0097 7.85955 22 7.78988V7.70988C21.9828 7.65407 21.9593 7.60039 21.93 7.54988C21.917 7.52108 21.9002 7.49417 21.88 7.46988L21.78 7.33988L21.7 7.27988L21.58 7.18988L12.58 2.18988C12.428 2.10211 12.2555 2.05591 12.08 2.05591C11.9045 2.05591 11.732 2.10211 11.58 2.18988L2.58 7.18988L2.49 7.25988L2.38 7.33988C2.35095 7.37258 2.32732 7.40972 2.31 7.44988C2.27801 7.47858 2.25097 7.51237 2.23 7.54988C2.20403 7.59376 2.18387 7.64082 2.17 7.68988C2.16441 7.72298 2.16441 7.75678 2.17 7.78988C2.10125 7.84917 2.04367 7.92029 2 7.99988V15.9999C2.0013 16.1781 2.05019 16.3527 2.14161 16.5056C2.23303 16.6586 2.36367 16.7844 2.52 16.8699L11.52 21.8699C11.5613 21.894 11.6049 21.9141 11.65 21.9299H11.75C11.9143 21.9698 12.0857 21.9698 12.25 21.9299H12.35L12.49 21.8699L21.49 16.8699C21.6445 16.7831 21.7731 16.6567 21.8627 16.5039C21.9523 16.351 21.9997 16.1771 22 15.9999V7.99988ZM12 11.8699L5.06 7.99988L7.82 6.47988L14.65 10.3799L12 11.8699ZM12 4.14988L18.94 7.99988L16.7 9.24988L9.87 5.33988L12 4.14988ZM4 9.69988L11 13.6199V19.2999L4 15.4099V9.69988ZM13 19.2999V13.6199L16 11.9399V14.9999L18 13.9999V10.8199L20 9.70988V15.4099L13 19.2999Z" fill="#FEE3CB"/>
</svg>
