<svg width="64" height="60" viewBox="0 0 64 60" fill="none" xmlns="http://www.w3.org/2000/svg">
<circle cx="31.875" cy="30" r="30" fill="#F8F8F8"/>
<path d="M32 17.5C28.5538 17.5 25.75 20.3038 25.75 23.75V26.25H24.5C23.1212 26.25 22 27.3713 22 28.75V40C22 41.3787 23.1212 42.5 24.5 42.5H39.5C40.8787 42.5 42 41.3787 42 40V28.75C42 27.3713 40.8787 26.25 39.5 26.25H38.25V23.75C38.25 20.3038 35.4462 17.5 32 17.5ZM28.25 23.75C28.25 21.6825 29.9325 20 32 20C34.0675 20 35.75 21.6825 35.75 23.75V26.25H28.25V23.75ZM39.5025 40H33.25V37.1525C33.9937 36.7188 34.5 35.9212 34.5 35C34.5 33.6213 33.3787 32.5 32 32.5C30.6213 32.5 29.5 33.6213 29.5 35C29.5 35.92 30.0063 36.7188 30.75 37.1525V40H24.5V28.75H39.5L39.5025 40Z" fill="#23292E"/>
</svg>
