<svg width="132" height="24" viewBox="0 0 132 24" fill="none" xmlns="http://www.w3.org/2000/svg">
<path d="M129.822 7.431C129.73 7.29808 129.607 7.18943 129.464 7.11436C129.321 7.0393 129.162 7.00006 129 7H115.333L114.179 4.23C114.028 3.86523 113.771 3.55359 113.443 3.33462C113.114 3.11564 112.728 2.99918 112.333 3H110V5H112.333L117.077 16.385C117.153 16.5672 117.281 16.7228 117.445 16.8322C117.61 16.9416 117.803 17 118 17H126C126.417 17 126.79 16.741 126.937 16.352L129.937 8.352C129.994 8.20063 130.013 8.03776 129.993 7.87735C129.973 7.71695 129.914 7.56379 129.822 7.431ZM125.307 15H118.667L116.167 9H127.557L125.307 15Z" fill="#000201"/>
<path d="M118.5 21C119.328 21 120 20.3284 120 19.5C120 18.6716 119.328 18 118.5 18C117.672 18 117 18.6716 117 19.5C117 20.3284 117.672 21 118.5 21Z" fill="#000201"/>
<path d="M125.5 21C126.328 21 127 20.3284 127 19.5C127 18.6716 126.328 18 125.5 18C124.672 18 124 18.6716 124 19.5C124 20.3284 124.672 21 125.5 21Z" fill="#000201"/>
<circle cx="128" cy="7" r="4" fill="#FF1616"/>
</svg>
