<svg width="64" height="60" viewBox="0 0 64 60" fill="none" xmlns="http://www.w3.org/2000/svg">
<circle cx="31.875" cy="30" r="30" fill="#F8F8F8"/>
<path d="M39.1334 30.3663C39.0175 30.2501 38.8797 30.1579 38.7281 30.095C38.5764 30.0321 38.4139 29.9998 38.2497 29.9998C38.0855 29.9998 37.923 30.0321 37.7713 30.095C37.6197 30.1579 37.4819 30.2501 37.3659 30.3663L35.3734 32.3588C34.4497 32.0838 32.7259 31.4588 31.6334 30.3663C30.5409 29.2738 29.9159 27.55 29.6409 26.6263L31.6334 24.6338C31.7496 24.5178 31.8418 24.38 31.9047 24.2284C31.9676 24.0767 31.9999 23.9142 31.9999 23.75C31.9999 23.5858 31.9676 23.4233 31.9047 23.2716C31.8418 23.12 31.7496 22.9822 31.6334 22.8663L26.6334 17.8663C26.5174 17.7501 26.3797 17.6579 26.2281 17.595C26.0764 17.5321 25.9139 17.4998 25.7497 17.4998C25.5855 17.4998 25.423 17.5321 25.2713 17.595C25.1197 17.6579 24.9819 17.7501 24.8659 17.8663L21.4759 21.2563C21.0009 21.7313 20.7334 22.3838 20.7434 23.05C20.7722 24.83 21.2434 31.0125 26.1159 35.885C30.9884 40.7575 37.1709 41.2275 38.9522 41.2575H38.9872C39.6472 41.2575 40.2709 40.9975 40.7434 40.525L44.1334 37.135C44.2496 37.019 44.3418 36.8813 44.4047 36.7296C44.4676 36.578 44.4999 36.4154 44.4999 36.2513C44.4999 36.0871 44.4676 35.9245 44.4047 35.7729C44.3418 35.6212 44.2496 35.4835 44.1334 35.3675L39.1334 30.3663ZM38.9747 38.7563C37.4147 38.73 32.0772 38.3113 27.8834 34.1163C23.6759 29.9088 23.2684 24.5525 23.2434 23.0238L25.7497 20.5175L28.9822 23.75L27.3659 25.3663C27.219 25.5131 27.111 25.6942 27.0516 25.8932C26.9923 26.0923 26.9834 26.3029 27.0259 26.5063C27.0559 26.65 27.7897 30.0588 29.8647 32.1338C31.9397 34.2088 35.3484 34.9425 35.4922 34.9725C35.6954 35.0162 35.9063 35.0081 36.1055 34.9489C36.3047 34.8897 36.4858 34.7813 36.6322 34.6338L38.2497 33.0175L41.4822 36.25L38.9747 38.7563Z" fill="#23292E"/>
</svg>
