<svg width="50" height="50" viewBox="0 0 50 50" fill="none" xmlns="http://www.w3.org/2000/svg">
<rect width="50" height="50" fill="#F8F8F8"/>
<path d="M18 33C18 33.5304 18.2107 34.0391 18.5858 34.4142C18.9609 34.7893 19.4696 35 20 35H30C30.5304 35 31.0391 34.7893 31.4142 34.4142C31.7893 34.0391 32 33.5304 32 33V21H34V19H30V17C30 16.4696 29.7893 15.9609 29.4142 15.5858C29.0391 15.2107 28.5304 15 28 15H22C21.4696 15 20.9609 15.2107 20.5858 15.5858C20.2107 15.9609 20 16.4696 20 17V19H16V21H18V33ZM22 17H28V19H22V17ZM21 21H30V33H20V21H21Z" fill="#FF1616"/>
<path d="M22 23H24V31H22V23ZM26 23H28V31H26V23Z" fill="#FF1616"/>
</svg>
