<svg width="24" height="24" viewBox="0 0 24 24" fill="none" xmlns="http://www.w3.org/2000/svg">
<path d="M19.5899 6.69C18.5931 6.47079 17.6913 5.94144 17.014 5.17789C16.3367 4.41435 15.9186 3.45587 15.8199 2.44V2H12.3699V15.67C12.3706 16.2766 12.1804 16.868 11.8263 17.3604C11.4722 17.8529 10.9722 18.2215 10.397 18.414C9.82175 18.6065 9.20056 18.6131 8.62138 18.4329C8.0422 18.2527 7.5344 17.8948 7.1699 17.41C6.84335 16.9808 6.64339 16.4689 6.59263 15.932C6.54187 15.3951 6.64234 14.8548 6.88268 14.372C7.12302 13.8892 7.49363 13.4834 7.95261 13.2003C8.4116 12.9172 8.94063 12.7681 9.4799 12.77C9.77814 12.7683 10.0749 12.8121 10.3599 12.9V9.4C10.0282 9.35893 9.69401 9.34222 9.3599 9.35C8.12921 9.38288 6.93482 9.77393 5.92299 10.4753C4.91115 11.1766 4.12579 12.1578 3.66308 13.2986C3.20036 14.4395 3.08038 15.6905 3.31782 16.8986C3.55526 18.1066 4.13981 19.2191 4.9999 20.1C5.88139 20.9962 7.00939 21.6101 8.24059 21.8638C9.4718 22.1175 10.7506 21.9994 11.9146 21.5246C13.0785 21.0498 14.075 20.2397 14.7775 19.1973C15.48 18.1548 15.8568 16.9271 15.8599 15.67V8.67C17.2514 9.66395 18.9199 10.1956 20.6299 10.19V6.79C20.294 6.79139 19.9589 6.75787 19.6299 6.69H19.5899Z" fill="#000201"/>
</svg>
