<svg width="128" height="16" viewBox="0 0 128 16" fill="none" xmlns="http://www.w3.org/2000/svg">
<g clip-path="url(#clip0_637_2532)">
<path d="M15.9583 6.13748C15.8536 5.81349 15.5662 5.58339 15.2262 5.55275L10.6082 5.13342L8.78209 0.859266C8.64744 0.546026 8.34079 0.343262 8.00008 0.343262C7.65938 0.343262 7.35273 0.546026 7.21808 0.859999L5.39198 5.13342L0.773211 5.55275C0.433847 5.58412 0.147219 5.81349 0.0418692 6.13748C-0.0634802 6.46146 0.0338123 6.81682 0.290533 7.04082L3.78122 10.1022L2.7519 14.6364C2.67658 14.9697 2.80598 15.3143 3.0826 15.5143C3.23128 15.6217 3.40524 15.6764 3.58066 15.6764C3.73191 15.6764 3.88193 15.6356 4.01658 15.5551L8.00008 13.1743L11.9821 15.5551C12.2735 15.7304 12.6408 15.7144 12.9168 15.5143C13.1936 15.3137 13.3229 14.969 13.2475 14.6364L12.2182 10.1022L15.7089 7.04143C15.9656 6.81682 16.0636 6.46207 15.9583 6.13748Z" fill="#FF9533"/>
</g>
<g clip-path="url(#clip1_637_2532)">
<path d="M43.9583 6.13748C43.8536 5.81349 43.5662 5.58339 43.2262 5.55275L38.6082 5.13342L36.7821 0.859266C36.6474 0.546026 36.3408 0.343262 36.0001 0.343262C35.6594 0.343262 35.3527 0.546026 35.2181 0.859999L33.392 5.13342L28.7732 5.55275C28.4338 5.58412 28.1472 5.81349 28.0419 6.13748C27.9365 6.46146 28.0338 6.81682 28.2905 7.04082L31.7812 10.1022L30.7519 14.6364C30.6766 14.9697 30.806 15.3143 31.0826 15.5143C31.2313 15.6217 31.4052 15.6764 31.5807 15.6764C31.7319 15.6764 31.8819 15.6356 32.0166 15.5551L36.0001 13.1743L39.9821 15.5551C40.2735 15.7304 40.6408 15.7144 40.9168 15.5143C41.1936 15.3137 41.3229 14.969 41.2475 14.6364L40.2182 10.1022L43.7089 7.04143C43.9656 6.81682 44.0636 6.46207 43.9583 6.13748Z" fill="#FF9533"/>
</g>
<g clip-path="url(#clip2_637_2532)">
<path d="M71.9583 6.13748C71.8536 5.81349 71.5662 5.58339 71.2262 5.55275L66.6082 5.13342L64.7821 0.859266C64.6474 0.546026 64.3408 0.343262 64.0001 0.343262C63.6594 0.343262 63.3527 0.546026 63.2181 0.859999L61.392 5.13342L56.7732 5.55275C56.4338 5.58412 56.1472 5.81349 56.0419 6.13748C55.9365 6.46146 56.0338 6.81682 56.2905 7.04082L59.7812 10.1022L58.7519 14.6364C58.6766 14.9697 58.806 15.3143 59.0826 15.5143C59.2313 15.6217 59.4052 15.6764 59.5807 15.6764C59.7319 15.6764 59.8819 15.6356 60.0166 15.5551L64.0001 13.1743L67.9821 15.5551C68.2735 15.7304 68.6408 15.7144 68.9168 15.5143C69.1936 15.3137 69.3229 14.969 69.2475 14.6364L68.2182 10.1022L71.7089 7.04143C71.9656 6.81682 72.0636 6.46207 71.9583 6.13748Z" fill="#D9D9D9"/>
</g>
<g clip-path="url(#clip3_637_2532)">
<path d="M99.9583 6.13748C99.8536 5.81349 99.5662 5.58339 99.2262 5.55275L94.6082 5.13342L92.7821 0.859266C92.6474 0.546026 92.3408 0.343262 92.0001 0.343262C91.6594 0.343262 91.3527 0.546026 91.2181 0.859999L89.392 5.13342L84.7732 5.55275C84.4338 5.58412 84.1472 5.81349 84.0419 6.13748C83.9365 6.46146 84.0338 6.81682 84.2905 7.04082L87.7812 10.1022L86.7519 14.6364C86.6766 14.9697 86.806 15.3143 87.0826 15.5143C87.2313 15.6217 87.4052 15.6764 87.5807 15.6764C87.7319 15.6764 87.8819 15.6356 88.0166 15.5551L92.0001 13.1743L95.9821 15.5551C96.2735 15.7304 96.6408 15.7144 96.9168 15.5143C97.1936 15.3137 97.3229 14.969 97.2475 14.6364L96.2182 10.1022L99.7089 7.04143C99.9656 6.81682 100.064 6.46207 99.9583 6.13748Z" fill="#D9D9D9"/>
</g>
<g clip-path="url(#clip4_637_2532)">
<path d="M127.958 6.13748C127.854 5.81349 127.566 5.58339 127.226 5.55275L122.608 5.13342L120.782 0.859266C120.647 0.546026 120.341 0.343262 120 0.343262C119.659 0.343262 119.353 0.546026 119.218 0.859999L117.392 5.13342L112.773 5.55275C112.434 5.58412 112.147 5.81349 112.042 6.13748C111.937 6.46146 112.034 6.81682 112.291 7.04082L115.781 10.1022L114.752 14.6364C114.677 14.9697 114.806 15.3143 115.083 15.5143C115.231 15.6217 115.405 15.6764 115.581 15.6764C115.732 15.6764 115.882 15.6356 116.017 15.5551L120 13.1743L123.982 15.5551C124.274 15.7304 124.641 15.7144 124.917 15.5143C125.194 15.3137 125.323 14.969 125.248 14.6364L124.218 10.1022L127.709 7.04143C127.966 6.81682 128.064 6.46207 127.958 6.13748Z" fill="#D9D9D9"/>
</g>
<defs>
<clipPath id="clip0_637_2532">
<rect width="16" height="16" fill="white"/>
</clipPath>
<clipPath id="clip1_637_2532">
<rect width="16" height="16" fill="white" transform="translate(28)"/>
</clipPath>
<clipPath id="clip2_637_2532">
<rect width="16" height="16" fill="white" transform="translate(56)"/>
</clipPath>
<clipPath id="clip3_637_2532">
<rect width="16" height="16" fill="white" transform="translate(84)"/>
</clipPath>
<clipPath id="clip4_637_2532">
<rect width="16" height="16" fill="white" transform="translate(112)"/>
</clipPath>
</defs>
</svg>
