<svg width="20" height="20" viewBox="0 0 20 20" fill="none" xmlns="http://www.w3.org/2000/svg">
<path d="M4.16688 8.33334C4.1665 8.13862 4.23431 7.94993 4.35855 7.8C4.4285 7.71562 4.51442 7.64587 4.61138 7.59474C4.70833 7.54361 4.81442 7.51212 4.92357 7.50205C5.03272 7.49199 5.14278 7.50356 5.24745 7.5361C5.35212 7.56863 5.44934 7.6215 5.53355 7.69167L10.0002 11.425L14.4752 7.825C14.5605 7.75578 14.6585 7.70409 14.7638 7.67289C14.8691 7.6417 14.9795 7.63162 15.0887 7.64324C15.1979 7.65486 15.3037 7.68794 15.4001 7.74058C15.4964 7.79323 15.5814 7.8644 15.6502 7.95C15.7261 8.03622 15.7833 8.1372 15.8183 8.24658C15.8533 8.35597 15.8653 8.4714 15.8535 8.58565C15.8418 8.69989 15.8066 8.81048 15.7501 8.91046C15.6936 9.01045 15.617 9.09767 15.5252 9.16667L10.5252 13.1917C10.3761 13.3142 10.1891 13.3812 9.99605 13.3812C9.80302 13.3812 9.61599 13.3142 9.46688 13.1917L4.46688 9.025C4.36603 8.9414 4.28631 8.83521 4.23419 8.71503C4.18206 8.59486 4.159 8.46409 4.16688 8.33334Z" fill="#000201"/>
</svg>
