<svg width="64" height="60" viewBox="0 0 64 60" fill="none" xmlns="http://www.w3.org/2000/svg">
<circle cx="31.875" cy="30" r="30" fill="#F8F8F8"/>
<path d="M43.1504 17.975C41.7471 17.6607 40.3135 17.5014 38.8754 17.5C37.5173 17.4138 36.1555 17.5969 34.8683 18.0388C33.5812 18.4807 32.3942 19.1727 31.3754 20.075C30.0337 21.4167 28.7046 22.7542 27.3879 24.0875C25.8754 23.925 22.2879 23.8375 19.8879 26.2625C19.6551 26.4967 19.5244 26.8135 19.5244 27.1437C19.5244 27.474 19.6551 27.7908 19.8879 28.025L34.0129 42.175C34.2471 42.4078 34.5639 42.5385 34.8942 42.5385C35.2244 42.5385 35.5412 42.4078 35.7754 42.175C38.2129 39.675 38.1379 36.15 37.9879 34.675L42.0004 30.675C45.9879 26.6875 44.1754 19.2 44.1004 18.8875C44.0427 18.662 43.9232 18.4572 43.7554 18.296C43.5875 18.1347 43.378 18.0236 43.1504 17.975ZM40.2004 28.9125L35.7504 33.3375C35.6063 33.483 35.5001 33.6617 35.4413 33.8579C35.3824 34.0541 35.3727 34.2617 35.4129 34.4625C35.6829 36.1348 35.4479 37.8496 34.7379 39.3875L22.6504 27.275C24.2127 26.556 25.9592 26.3377 27.6504 26.65C27.8505 26.6761 28.0539 26.6533 28.2433 26.5836C28.4327 26.514 28.6024 26.3995 28.7379 26.25C28.7379 26.25 30.4879 24.4375 33.1254 21.8C34.7472 20.4976 36.8005 19.8549 38.8754 20C39.8514 20.0048 40.8254 20.0884 41.7879 20.25C42.0879 22.0375 42.5629 26.55 40.2004 28.9125Z" fill="#23292E"/>
<path d="M36.6621 27.875C38.0428 27.875 39.1621 26.7557 39.1621 25.375C39.1621 23.9943 38.0428 22.875 36.6621 22.875C35.2814 22.875 34.1621 23.9943 34.1621 25.375C34.1621 26.7557 35.2814 27.875 36.6621 27.875Z" fill="#23292E"/>
<path d="M23.25 35C20.75 36.25 20.75 41.25 20.75 41.25C23.0638 41.184 25.2789 40.2979 27 38.75L23.25 35Z" fill="#23292E"/>
</svg>
